<svg viewBox="0 0 16.4667 16.4666" xmlns="http://www.w3.org/2000/svg" xmlns:xlink="http://www.w3.org/1999/xlink" width="16.466675" height="16.466644" fill="none" customFrame="#000000">
	<rect id="iconfinder_shopping-cart_2561279 1" width="16.000000" height="16.000000" x="0.233337" y="0.233337" fill="rgb(255,255,255)" fill-opacity="0" />
	<path id="Vector" d="M5.56667 15.5667C4.83029 15.5667 4.23334 14.9697 4.23334 14.2334C4.23334 13.497 4.83029 12.9 5.56667 12.9C6.30305 12.9 6.9 13.497 6.9 14.2334C6.9 14.9697 6.30305 15.5667 5.56667 15.5667Z" stroke="rgb(255,255,255)" stroke-linecap="round" stroke-linejoin="round" stroke-width="1.79999995" />
	<path id="Vector" d="M13.5667 15.5667C12.8303 15.5667 12.2333 14.9697 12.2333 14.2334C12.2333 13.497 12.8303 12.9 13.5667 12.9C14.3031 12.9 14.9 13.497 14.9 14.2334C14.9 14.9697 14.3031 15.5667 13.5667 15.5667Z" stroke="rgb(255,255,255)" stroke-linecap="round" stroke-linejoin="round" stroke-width="1.79999995" />
	<path id="Vector" d="M4.0133 4.23333L15.5666 4.23333L14.4466 9.82666C14.3857 10.1336 14.2187 10.4093 13.9749 10.6055C13.7312 10.8018 13.4262 10.906 13.1133 10.9L6.06663 10.9C5.74109 10.9028 5.42578 10.7863 5.18017 10.5726C4.93455 10.3589 4.77561 10.0628 4.7333 9.73999L3.71996 2.05999C3.67794 1.73948 3.52091 1.44516 3.2781 1.23177C3.03528 1.01839 2.72321 0.900483 2.39996 0.899994L0.899963 0.899994" fill-rule="nonzero" stroke="rgb(255,255,255)" stroke-linecap="round" stroke-linejoin="round" stroke-width="1.79999995" />
</svg>
